<svg width="258" height="125" viewBox="0 0 258 125" fill="none" xmlns="http://www.w3.org/2000/svg">
<path d="M114.01 41.7243L97.2058 31.2251L96.5508 56.4763L39.0658 54.8125L88.0551 1.37673L119.141 2.27644L117.356 19.3883L97.5278 18.8144L97.283 28.2503L114.346 28.7442L114.01 41.7243Z" fill="#17115B"/>
<ellipse rx="1.60584" ry="2.19868" transform="matrix(0.999604 0.0281277 -0.0266732 0.999644 238.788 101.958)" fill="#EE2828"/>
<ellipse rx="5.35281" ry="8.51989" transform="matrix(0.999604 0.0281277 -0.0266732 0.999644 10.3901 90.6482)" fill="#EFF24F"/>
<ellipse rx="1.60584" ry="2.19868" transform="matrix(0.999604 0.0281277 -0.0266732 0.999644 238.788 110.203)" fill="#E33636"/>
<path d="M22.2637 81.8905L26.3986 67.3242L36.0824 55.3987L72.18 56.4145L119.24 57.7387L172.718 59.2435L197.184 59.932L214.967 69.5903L218.925 85.9727L233.378 91.2352L238.73 99.1651L238.73 112.414L224.813 112.414L199.902 112.414L200.348 95.7112L193.474 82.4163L180.734 78.2177L162.274 77.6983L150.668 81.2118L140.621 88.8351L135.959 110.105L117.843 110.105L101.984 109.659L99.8266 90.1857L94.2183 79.6233L78.2686 75.3345L64.3568 74.943L51.6803 78.4264L41.2808 91.2352L40.7809 109.97L25.2723 109.533L21.7928 99.5375L8.55703 99.1651L9.0279 81.518L22.2637 81.8905Z" fill="#BB8686"/>
<path d="M152.211 35.9624L142.945 35.6942L142.626 47.9875L112.052 47.1026L147.205 0.982076L149.757 1.05594L156.996 48.4034L154.004 48.3168L152.211 35.9624ZM143.959 30.6083L151.478 30.826L148.282 8.68612L143.959 30.6083Z" fill="black"/>
<path d="M204.862 111.906C204.598 121.796 206.533 93.4163 205.43 90.6455C204.326 87.8746 202.163 85.2526 199.095 82.9643C196.026 80.6761 192.125 78.7773 187.668 77.402C183.211 76.0268 178.306 75.2084 173.299 75.0048C168.291 74.8011 163.304 75.2171 158.689 76.2233C154.074 77.2296 149.943 78.8016 146.588 80.8286C143.232 82.8555 140.734 85.288 139.27 87.9544C137.805 90.6208 134.454 107.44 135.156 110.244L145.803 110.244C145.339 108.393 149.438 91.8479 150.405 90.088C151.371 88.3281 153.02 86.7226 155.235 85.3848C157.449 84.0469 160.176 83.0093 163.222 82.3452C166.268 81.681 169.56 81.4065 172.865 81.5409C176.169 81.6753 179.407 82.2154 182.349 83.1232C185.291 84.0309 187.865 85.2841 189.891 86.7944C191.916 88.3047 193.344 90.0353 194.072 91.8642C194.8 93.693 194.252 109.784 193.546 111.587L204.862 111.906Z" fill="#6D4040"/>
<path d="M104.129 109.822C104.129 109.822 105.264 92.2595 104.129 89.341C102.994 86.4226 100.769 83.6616 97.6091 81.2528C94.4495 78.8441 90.433 76.8463 85.843 75.4003C81.253 73.9543 76.2013 73.0954 71.0441 72.8841C65.887 72.6729 60.7501 73.1144 55.9958 74.1777C51.2414 75.2409 46.9855 76.8998 43.5281 79.0375C40.0708 81.1752 37.4963 83.7396 35.9861 86.5497C34.476 89.3598 34.644 106.868 35.3652 109.822L42.7012 110.028C42.2252 108.079 46.4572 90.6449 47.4539 88.7902C48.4507 86.9354 50.1499 85.2429 52.4318 83.8319C54.7138 82.421 57.5228 81.326 60.6608 80.6243C63.7988 79.9225 67.1893 79.6311 70.5931 79.7705C73.997 79.91 77.3313 80.4769 80.3608 81.4313C83.3903 82.3856 86.0413 83.7043 88.1267 85.2941C90.2121 86.8839 91.6812 88.7062 92.4302 90.6325C93.1793 92.5588 93.1584 107.921 92.4302 109.822L104.129 109.822Z" fill="#6D4040"/>
<ellipse rx="22.4818" ry="19.5133" transform="matrix(0.999604 0.0281277 -0.0266732 0.999644 69.0272 100.592)" fill="#271E1E"/>
<ellipse rx="14.1418" ry="14.0752" transform="matrix(0.999604 0.0281277 -0.0266732 0.999644 68.6732 100.262)" fill="#C9CB82"/>
<ellipse rx="6.16436" ry="7.03758" transform="matrix(0.999604 0.0281277 -0.0266732 0.999644 68.6732 100.262)" fill="#9F7D7D"/>
<ellipse rx="2.17566" ry="2.55912" transform="matrix(0.999604 0.0281277 -0.0266732 0.999644 69.3428 88.7599)" fill="#524646"/>
<ellipse rx="2.17566" ry="2.55912" transform="matrix(0.999604 0.0281277 -0.0266732 0.999644 78.4598 100.537)" fill="#524646"/>
<ellipse rx="2.17566" ry="2.55912" transform="matrix(0.999604 0.0281277 -0.0266732 0.999644 58.1617 99.9659)" fill="#524646"/>
<ellipse rx="2.17566" ry="2.55912" transform="matrix(0.999604 0.0281277 -0.0266732 0.999644 68.0377 110.484)" fill="#524646"/>
<ellipse rx="22.4818" ry="19.2385" transform="matrix(0.999604 0.0281277 -0.0266732 0.999644 171.826 101.01)" fill="#271E1E"/>
<ellipse rx="14.1418" ry="13.8769" transform="matrix(0.999604 0.0281277 -0.0266732 0.999644 171.472 100.684)" fill="#C9CB82"/>
<ellipse rx="6.16436" ry="6.93846" transform="matrix(0.999604 0.0281277 -0.0266732 0.999644 171.472 100.684)" fill="#9F7D7D"/>
<ellipse rx="2.17566" ry="2.52308" transform="matrix(0.999604 0.0281277 -0.0266732 0.999644 172.138 89.3448)" fill="#524646"/>
<ellipse rx="2.17566" ry="2.52308" transform="matrix(0.999604 0.0281277 -0.0266732 0.999644 181.259 100.96)" fill="#524646"/>
<ellipse rx="2.17566" ry="2.52308" transform="matrix(0.999604 0.0281277 -0.0266732 0.999644 160.961 100.389)" fill="#524646"/>
<ellipse rx="2.17566" ry="2.52308" transform="matrix(0.999604 0.0281277 -0.0266732 0.999644 170.841 110.763)" fill="#524646"/>
<ellipse cx="7.94957" cy="87.5965" rx="3.61345" ry="5.55019" fill="#F2624F"/>
<rect y="120.656" width="258" height="1.44788" fill="#8FBE93"/>
<rect y="122.104" width="258" height="2.89575" fill="#6D4040"/>
<path d="M158.992 25.3688C158.992 20.5813 159.75 16.2755 161.266 12.4515C162.807 8.62747 164.935 5.67666 167.649 3.59905C170.388 1.52143 173.507 0.482628 177.004 0.482628C182.409 0.482628 186.774 2.78607 190.1 7.39295C193.451 11.9998 195.126 18.1273 195.126 25.7753V26.3625C195.126 31.1199 194.38 35.3956 192.888 39.1895C191.421 42.9532 189.305 45.889 186.542 47.9967C183.803 50.1044 180.648 51.1583 177.077 51.1583C171.697 51.1583 167.331 48.8549 163.981 44.248C160.655 39.6411 158.992 33.5438 158.992 25.956V25.3688ZM165.815 26.3625C165.815 31.7823 166.83 36.1333 168.86 39.4153C170.914 42.6973 173.653 44.3383 177.077 44.3383C180.526 44.3383 183.265 42.6822 185.295 39.3701C187.324 36.0279 188.339 31.3608 188.339 25.3688C188.339 20.0092 187.3 15.6733 185.221 12.3612C183.167 9.01891 180.428 7.34778 177.004 7.34778C173.653 7.34778 170.951 8.98879 168.896 12.2708C166.842 15.5528 165.815 20.2501 165.815 26.3625Z" fill="#F01E1E"/>
<path d="M109.416 46.6287L127.621 47.044L143.726 47.4114L157.73 47.7308L174.038 50.4555L184.025 52.8221L194.934 57.7763L203.945 65.0398L33.0154 59.4637L39.4872 54.2305L49.0136 51.2396L66.9057 48.0117L84.3004 47.1252L109.416 46.6287Z" fill="#9F7D7D"/>
<path d="M79.4969 67.0938L109.131 65.7239L108.094 74.0283L78.9241 71.6785L79.4969 67.0938Z" fill="#A0C2D1"/>
<path d="M127.547 66.5406L153.006 69.8537L153.4 75.3803L128.14 74.8598L127.547 66.5406Z" fill="#A0C2D1"/>
<rect width="12.5175" height="8.74284" transform="matrix(0.999788 0.0206001 -0.03194 0.99949 112.87 65.801)" fill="#C4C4C4"/>
</svg>
